<svg width="288" height="255" viewBox="0 0 288 255" fill="none" xmlns="http://www.w3.org/2000/svg">
<path d="M120.175 137.67H120.255M167.825 137.67H167.904M198.668 115.405C209.155 127.867 215.475 143.965 215.475 161.541C215.475 201.093 183.475 233.156 144 233.156C104.526 233.156 72.5251 201.093 72.5251 161.541C72.5251 143.965 78.8448 127.867 89.3317 115.405" stroke="#001A72" stroke-width="5" stroke-linecap="round" stroke-linejoin="round"/>
<path d="M88.3321 172.178C104.826 195.323 132.268 188.783 144 181.593C155.733 188.783 183.174 195.323 199.668 172.178C170.803 180.737 171.098 154.545 154.603 154.545C149.184 154.545 145.276 157.17 144 158.483C142.724 157.17 138.816 154.545 133.397 154.545C116.902 154.545 117.197 180.737 88.3321 172.178Z" stroke="#001A72" stroke-width="5" stroke-linejoin="round"/>
<path d="M163.439 38.5606L161.222 39.7172L163.439 38.5606ZM144 23.1315V20.6315V23.1315ZM124.561 38.5606L122.345 37.404L124.561 38.5606ZM116.51 75.8098H114.01H116.51ZM144 79.7693V77.2693V79.7693ZM231.441 72.4001L231.88 74.8611L231.441 72.4001ZM56.5596 72.4001L56.1197 74.8611L56.5596 72.4001ZM215.827 95.6469L217.094 93.4919L217.094 93.4919L215.827 95.6469ZM210.889 93.7064L210.297 96.1354L210.889 93.7064ZM199.238 93.7064L198.646 91.2774L199.238 93.7064ZM194.299 95.6469L193.032 93.4919L194.299 95.6469ZM190.999 98.5511L193.043 99.9908L193.043 99.9908L190.999 98.5511ZM187.34 101.977C187.34 103.358 188.46 104.477 189.84 104.477C191.221 104.477 192.34 103.358 192.34 101.977H187.34ZM185.382 95.6469L184.114 97.8019L185.382 95.6469ZM163.853 95.6469L162.586 93.4919L163.853 95.6469ZM156.895 101.977C156.895 103.358 158.014 104.477 159.395 104.477C160.775 104.477 161.895 103.358 161.895 101.977H156.895ZM154.936 95.6469L153.669 97.8019L153.669 97.8019L154.936 95.6469ZM149.997 93.7064L150.589 91.2774L149.997 93.7064ZM138.346 93.7064L138.938 96.1354L138.346 93.7064ZM133.408 95.6469L132.141 93.4919L133.408 95.6469ZM130.108 98.5511L128.064 97.1115V97.1115L130.108 98.5511ZM126.449 101.977C126.449 103.358 127.568 104.477 128.949 104.477C130.33 104.477 131.449 103.358 131.449 101.977H126.449ZM127.79 98.5511L129.834 97.1115L129.834 97.1115L127.79 98.5511ZM124.49 95.6469L125.758 93.4919L124.49 95.6469ZM119.552 93.7064L118.96 96.1354L119.552 93.7064ZM107.901 93.7064L108.493 96.1354L107.901 93.7064ZM102.962 95.6469L101.695 93.4919H101.695L102.962 95.6469ZM99.6623 98.5511L101.706 99.9908L101.706 99.9908L99.6623 98.5511ZM96.0036 101.977C96.0036 103.358 97.1229 104.477 98.5036 104.477C99.8843 104.477 101.004 103.358 101.004 101.977H96.0036ZM97.3448 98.5511L95.3009 99.9908L95.3009 99.9908L97.3448 98.5511ZM94.0449 95.6469L95.3122 93.4919H95.3122L94.0449 95.6469ZM89.1063 93.7064L88.5146 96.1354L89.1063 93.7064ZM77.4553 93.7064L78.0469 96.1354L77.4553 93.7064ZM72.5167 95.6469L71.2494 93.4919L72.5167 95.6469ZM69.2168 98.5511L71.2607 99.9908L69.2168 98.5511ZM171.49 78.9849L171.629 81.4811L171.49 78.9849ZM68.058 102.408L66.224 104.107L68.058 102.408ZM220.286 102.033L222.139 103.71L220.286 102.033ZM173.99 75.8098C173.99 61.536 171.038 47.7194 165.655 37.404L161.222 39.7172C166.15 49.16 168.99 62.1414 168.99 75.8098H173.99ZM165.655 37.404C160.319 27.1787 152.661 20.6315 144 20.6315V25.6315C149.921 25.6315 156.248 30.1844 161.222 39.7172L165.655 37.404ZM144 20.6315C135.339 20.6315 127.681 27.1787 122.345 37.404L126.778 39.7172C131.753 30.1844 138.079 25.6315 144 25.6315V20.6315ZM122.345 37.404C116.962 47.7194 114.01 61.536 114.01 75.8098H119.01C119.01 62.1414 121.85 49.16 126.778 39.7172L122.345 37.404ZM187.851 113.938H100.149V118.938H187.851V113.938ZM234.126 72.5772C234.126 71.9518 233.905 71.2394 233.346 70.6779C232.744 70.0715 231.874 69.7831 231.001 69.9391L231.88 74.8611C231.115 74.9979 230.338 74.7433 229.8 74.2029C229.308 73.7074 229.126 73.093 229.126 72.5772H234.126ZM58.8746 72.5772C58.8746 73.093 58.6924 73.7074 58.1997 74.2029C57.6625 74.7433 56.885 74.9979 56.1197 74.8611L56.9994 69.9391C56.1265 69.7831 55.2565 70.0715 54.6538 70.6778C54.0956 71.2393 53.8746 71.9519 53.8746 72.5772H58.8746ZM222.786 101.633C222.786 99.7188 222.072 98.3902 221.171 97.1115L217.083 99.9908C217.712 100.884 217.786 101.195 217.786 101.633H222.786ZM221.171 97.1115C220.159 95.6745 218.745 94.4624 217.094 93.4919L214.56 97.8019C215.737 98.494 216.565 99.2556 217.083 99.9908L221.171 97.1115ZM217.094 93.4919C215.44 92.5189 213.528 91.7761 211.48 91.2774L210.297 96.1354C211.943 96.5364 213.387 97.1124 214.56 97.8019L217.094 93.4919ZM211.48 91.2774C209.43 90.778 207.251 90.525 205.063 90.525V95.525C206.873 95.525 208.653 95.7351 210.297 96.1354L211.48 91.2774ZM205.063 90.525C202.875 90.525 200.696 90.778 198.646 91.2774L199.829 96.1354C201.473 95.7351 203.253 95.525 205.063 95.525V90.525ZM198.646 91.2774C196.598 91.7761 194.686 92.5189 193.032 93.4919L195.566 97.8019C196.739 97.1124 198.183 96.5364 199.829 96.1354L198.646 91.2774ZM193.032 93.4919C191.381 94.4624 189.967 95.6745 188.955 97.1115L193.043 99.9908C193.561 99.2556 194.389 98.494 195.566 97.8019L193.032 93.4919ZM188.955 97.1115C187.933 98.562 187.34 100.22 187.34 101.977H192.34C192.34 101.382 192.535 100.712 193.043 99.9908L188.955 97.1115ZM192.34 101.977C192.34 98.3857 189.931 95.422 186.649 93.4919L184.114 97.8019C186.542 99.2295 187.34 100.82 187.34 101.977H192.34ZM186.649 93.4919C183.334 91.5425 179.003 90.525 174.617 90.525V95.525C178.307 95.525 181.72 96.3937 184.114 97.8019L186.649 93.4919ZM174.617 90.525C170.232 90.525 165.901 91.5425 162.586 93.4919L165.121 97.8019C167.515 96.3937 170.928 95.525 174.617 95.525V90.525ZM162.586 93.4919C159.304 95.422 156.895 98.3857 156.895 101.977H161.895C161.895 100.82 162.693 99.2295 165.121 97.8019L162.586 93.4919ZM161.895 101.977C161.895 100.22 161.301 98.562 160.28 97.1115L156.192 99.9908C156.7 100.712 156.895 101.382 156.895 101.977H161.895ZM160.28 97.1115C159.268 95.6745 157.854 94.4624 156.203 93.4919L153.669 97.8019C154.846 98.494 155.674 99.2556 156.192 99.9908L160.28 97.1115ZM156.203 93.4919C154.549 92.5189 152.636 91.7761 150.589 91.2774L149.406 96.1354C151.052 96.5364 152.496 97.1124 153.669 97.8019L156.203 93.4919ZM150.589 91.2774C148.539 90.778 146.36 90.525 144.172 90.525V95.525C145.982 95.525 147.762 95.7351 149.406 96.1354L150.589 91.2774ZM144.172 90.525C141.984 90.525 139.805 90.778 137.755 91.2774L138.938 96.1354C140.582 95.7351 142.362 95.525 144.172 95.525V90.525ZM137.755 91.2774C135.707 91.7761 133.795 92.5189 132.141 93.4919L134.675 97.8019C135.848 97.1124 137.292 96.5364 138.938 96.1354L137.755 91.2774ZM132.141 93.4919C130.49 94.4624 129.076 95.6745 128.064 97.1115L132.152 99.9908C132.67 99.2556 133.498 98.494 134.675 97.8019L132.141 93.4919ZM128.064 97.1115C127.042 98.562 126.449 100.22 126.449 101.977H131.449C131.449 101.382 131.643 100.712 132.152 99.9908L128.064 97.1115ZM131.449 101.977C131.449 100.22 130.856 98.562 129.834 97.1115L125.746 99.9908C126.255 100.712 126.449 101.382 126.449 101.977H131.449ZM129.834 97.1115C128.822 95.6745 127.408 94.4624 125.758 93.4919L123.223 97.8019C124.4 98.494 125.229 99.2556 125.746 99.9908L129.834 97.1115ZM125.758 93.4919C124.103 92.5189 122.191 91.7761 120.144 91.2774L118.96 96.1354C120.607 96.5364 122.051 97.1124 123.223 97.8019L125.758 93.4919ZM120.144 91.2774C118.093 90.778 115.915 90.525 113.726 90.525V95.525C115.536 95.525 117.317 95.7351 118.96 96.1354L120.144 91.2774ZM113.726 90.525C111.538 90.525 109.36 90.778 107.309 91.2774L108.493 96.1354C110.136 95.7351 111.916 95.525 113.726 95.525V90.525ZM107.309 91.2774C105.262 91.7761 103.35 92.5189 101.695 93.4919L104.229 97.8019C105.402 97.1124 106.846 96.5364 108.493 96.1354L107.309 91.2774ZM101.695 93.4919C100.045 94.4624 98.6306 95.6745 97.6185 97.1115L101.706 99.9908C102.224 99.2556 103.053 98.494 104.229 97.8019L101.695 93.4919ZM97.6185 97.1115C96.5968 98.562 96.0036 100.22 96.0036 101.977H101.004C101.004 101.382 101.198 100.712 101.706 99.9908L97.6185 97.1115ZM101.004 101.977C101.004 100.22 100.41 98.562 99.3887 97.1115L95.3009 99.9908C95.8093 100.712 96.0036 101.382 96.0036 101.977H101.004ZM99.3887 97.1115C98.3765 95.6745 96.9625 94.4624 95.3122 93.4919L92.7777 97.8019C93.9545 98.494 94.7831 99.2556 95.3009 99.9908L99.3887 97.1115ZM95.3122 93.4919C93.6576 92.5189 91.7454 91.7761 89.698 91.2774L88.5146 96.1354C90.1611 96.5364 91.6051 97.1124 92.7777 97.8019L95.3122 93.4919ZM89.698 91.2774C87.6476 90.778 85.469 90.525 83.2808 90.525V95.525C85.0908 95.525 86.8711 95.7351 88.5146 96.1354L89.698 91.2774ZM83.2808 90.525C81.0926 90.525 78.914 90.778 76.8636 91.2774L78.0469 96.1354C79.6904 95.7351 81.4708 95.525 83.2808 95.525V90.525ZM76.8636 91.2774C74.8162 91.7761 72.904 92.5189 71.2494 93.4919L73.7839 97.8019C74.9565 97.1124 76.4005 96.5364 78.0469 96.1354L76.8636 91.2774ZM71.2494 93.4919C69.5991 94.4624 68.1851 95.6745 67.1729 97.1115L71.2607 99.9908C71.7785 99.2556 72.6071 98.494 73.7839 97.8019L71.2494 93.4919ZM67.1729 97.1115C66.1512 98.562 65.558 100.22 65.558 101.977H70.558C70.558 101.382 70.7523 100.712 71.2607 99.9908L67.1729 97.1115ZM56.1197 74.8611C58.5459 75.2947 83.5496 79.6625 116.371 81.4811L116.648 76.4887C84.101 74.6854 59.3134 70.3527 56.9994 69.9391L56.1197 74.8611ZM116.371 81.4811C125.115 81.9655 134.418 82.2693 144 82.2693V77.2693C134.522 77.2693 125.312 76.9688 116.648 76.4887L116.371 81.4811ZM114.01 75.8098V78.9849H119.01V75.8098H114.01ZM144 82.2693C153.583 82.2693 162.885 81.9655 171.629 81.4811L171.352 76.4887C162.688 76.9688 153.478 77.2693 144 77.2693V82.2693ZM171.629 81.4811C204.451 79.6625 229.454 75.2948 231.88 74.8611L231.001 69.9391C228.687 70.3527 203.899 74.6854 171.352 76.4887L171.629 81.4811ZM168.99 75.8098V78.9849H173.99V75.8098H168.99ZM100.149 113.938C88.197 113.938 77.4335 108.85 69.892 100.709L66.224 104.107C74.6709 113.225 86.7456 118.938 100.149 118.938V113.938ZM69.892 100.709C63.0534 93.3265 58.8746 83.444 58.8746 72.5772H53.8746C53.8746 84.7517 58.5621 95.8357 66.224 104.107L69.892 100.709ZM65.558 101.977V102.408H70.558V101.977H65.558ZM229.126 72.5772C229.126 83.2715 225.079 93.0121 218.432 100.355L222.139 103.71C229.586 95.483 234.126 84.558 234.126 72.5772H229.126ZM218.432 100.355C210.877 108.702 199.975 113.938 187.851 113.938V118.938C201.448 118.938 213.677 113.059 222.139 103.71L218.432 100.355ZM217.786 101.633V102.033H222.786V101.633H217.786Z" fill="#001A72"/>
<path d="M253.869 144.547C252.143 130.826 264.703 132.338 263.36 121.666C262.513 114.93 256.374 110.158 249.65 111.007C243.976 111.723 239.698 116.211 239.008 121.643M255.02 153.695L255.016 153.665" stroke="#001A72" stroke-width="4.19102" stroke-linecap="round" stroke-linejoin="round"/>
<path d="M37.1967 132.115C35.044 118.893 47.2553 119.915 45.581 109.631C44.5242 103.141 38.4145 98.7369 31.9347 99.7954C26.4676 100.689 22.4837 105.184 22.0065 110.466M38.6318 140.93L38.627 140.9" stroke="#001A72" stroke-width="4.19102" stroke-linecap="round" stroke-linejoin="round"/>
<path d="M35.305 209.309C39.0324 199.246 46.8685 204.702 49.7676 196.875C51.5974 191.934 49.2016 186.488 44.4164 184.709C40.3791 183.209 35.9309 184.799 33.54 188.3M32.8201 216.018L32.8284 215.996" stroke="#001A72" stroke-width="4.19102" stroke-linecap="round" stroke-linejoin="round"/>
<path d="M261.15 214.338C254.489 205.93 263.209 202.045 258.029 195.505C254.759 191.377 248.867 190.606 244.869 193.784C241.495 196.465 240.548 201.1 242.297 204.962M265.59 219.944L265.575 219.925" stroke="#001A72" stroke-width="4.19102" stroke-linecap="round" stroke-linejoin="round"/>
</svg>
