<svg width="95" height="52" viewBox="0 0 95 52" fill="none" xmlns="http://www.w3.org/2000/svg">
<g clip-path="url(#clip0)">
<path fill-rule="evenodd" clip-rule="evenodd" d="M0.15564 0.157593H1.32314H78.9229H79.4083L79.7506 0.505983L94.2276 15.2393L94.5673 15.5851V16.0727V50.4243V51.6061H93.3998H15.8779H15.3944L15.0524 51.2599L0.497592 36.5266L0.15564 36.1804V35.6909V1.33941V0.157593ZM2.49064 4.19257V35.2014L14.7104 47.5711V16.5622L2.49064 4.19257ZM4.14173 2.52123L16.3615 14.8909H90.5919L78.4374 2.52123H4.14173ZM92.2323 49.2424H17.0454V17.2546H92.2323V49.2424Z" fill="#001A72"/>
<path d="M35.9589 36.6364C35.9589 39.2364 34.3244 41.4424 30.1993 41.4424C28.4091 41.4424 27.0081 41.0485 25.6849 40.497V36.9515C27.0081 37.6606 28.6426 38.0545 30.1214 38.0545C31.4446 38.0545 32.1451 37.6606 32.1451 36.8727C32.1451 34.5091 25.6849 35.2182 25.6849 30.3333C25.6849 27.3394 28.0978 25.4485 31.3668 25.4485C32.7678 25.4485 34.0131 25.7636 35.3363 26.5515V30.3333C33.5461 29.2303 32.3008 28.8364 31.2889 28.8364C30.0436 28.8364 29.4209 29.3091 29.4209 30.0182C29.3431 32.303 35.9589 31.4364 35.9589 36.6364Z" fill="#001A72"/>
<path d="M61.7218 25.8424L56.8183 41.1273H53.0823L49.8133 30.5697L46.4665 41.0485H42.7305L37.827 25.7636H42.03L44.7541 36.0061L47.9453 25.7636H51.6813L54.8724 36.0061L57.5966 25.7636H61.7218V25.8424Z" fill="#001A72"/>
<path d="M85.1495 31.0424V41.1273H81.4135V31.6727C81.4135 30.0182 80.246 29.0727 79.0007 29.0727C77.6775 29.0727 76.5879 30.0182 76.5879 31.6727V41.1273H72.8519V31.6727C72.8519 30.0182 71.6844 29.0727 70.439 29.0727C69.1159 29.0727 68.0262 30.0182 68.0262 31.6727V41.1273H64.2902V25.8424H67.7927V26.9455C68.8824 25.8424 70.0499 25.4485 71.4509 25.4485C73.0075 25.4485 74.4085 26.1576 75.3425 27.4182C76.5879 26.0788 78.1445 25.4485 79.9347 25.4485C82.9702 25.5273 85.1495 27.7333 85.1495 31.0424Z" fill="#001A72"/>
</g>
<defs>
<clipPath id="clip0">
<rect width="94.9565" height="52" fill="white"/>
</clipPath>
</defs>
</svg>
